<svg height="512pt" viewBox="0 -79 512.0005 512" width="512pt" xmlns="http://www.w3.org/2000/svg"><path d="m78.25 21.21875-21.21875-21.21875c-76.042969 76.042969-76.042969 199.777344 0 275.820312l21.21875-21.214843c-64.34375-64.347657-64.34375-169.042969 0-233.386719zm0 0"/><path d="m120.683594 63.652344-21.21875-21.21875c-25.5 25.503906-39.546875 59.410156-39.546875 95.476562s14.046875 69.972656 39.546875 95.476563l21.21875-21.214844c-19.835938-19.835937-30.761719-46.210937-30.761719-74.261719 0-28.050781 10.925781-54.421875 30.761719-74.257812zm0 0"/><path d="m141.898438 84.867188c-29.246094 29.25-29.246094 76.839843 0 106.085937l21.21875-21.21875c-17.546876-17.546875-17.546876-46.101563 0-63.648437zm0 0"/><path d="m476.992188 62.898438h-15.511719c-6.96875-34.199219-37.277344-60.011719-73.503907-60.011719h-170.839843l20.003906 60.011719h-43.199219v150.027343h111.402344c4.261719 19.945313 3.363281 39.5625-2.734375 59.652344l-5.878906 19.359375h88.945312l13.367188 31.417969c7.910156 18.585937 26.070312 30.59375 46.269531 30.59375 15.90625 0 30.527344-7.277344 40.117188-19.964844 9.589843-12.6875 12.601562-28.742187 8.257812-44.042969l-21.847656-77.015625h5.15625c19.300781 0 35.003906-15.707031 35.003906-35.007812v-80.015625c0-19.300782-15.703125-35.003906-35.007812-35.003906zm-218.226563-30.007813h129.210937c19.558594 0 36.234376 12.542969 42.429688 30.007813h-161.636719zm77.121094 229.042969c2.75-16.3125 2.734375-32.695313-.015625-49.007813h16.179687l20.855469 49.007813zm128.9375 36.199218c1.75 6.167969.535156 12.644532-3.332031 17.761719-3.867188 5.117188-9.765626 8.050781-16.179688 8.050781-8.144531 0-15.46875-4.84375-18.65625-12.339843l-41.992188-98.679688h55.988282zm17.167969-120.214843c0 2.757812-2.242188 5-5 5h-253.042969v-90.015625h253.042969c2.757812 0 5 2.242187 5 5zm0 0"/></svg>