<?xml version="1.0" encoding="iso-8859-1"?>
<!-- Generator: Adobe Illustrator 19.0.0, SVG Export Plug-In . SVG Version: 6.00 Build 0)  -->
<svg version="1.1" id="Capa_1" xmlns="http://www.w3.org/2000/svg" xmlns:xlink="http://www.w3.org/1999/xlink" x="0px" y="0px"
	 viewBox="0 0 508 508" style="enable-background:new 0 0 508 508;" xml:space="preserve">
<g>
	<g>
		<path d="M467,0H41C18.4,0,0,18.4,0,41v426c0,22.6,18.4,41,41,41h426c22.6,0,41-18.4,41-41V41C508,18.4,489.6,0,467,0z M491.6,467
			c0,13.6-11,24.6-24.6,24.6H41c-13.6,0-24.6-11-24.6-24.6V41c0-13.6,11-24.6,24.6-24.6h426c13.6,0,24.6,11,24.6,24.6V467z"/>
	</g>
</g>
<g>
	<g>
		<path d="M49.2,49.2v327.7h409.7V49.2H49.2z M442.4,360.6H65.5v-0.1V221.2h62.7l55-73.1l-3.6,175.5l92.5-142.9l8,112.2L381,158.5
			l13.9,62.8h47.5V360.6z M442.5,204.8h-34.4l-18.8-84.7l-95.8,127.8L285,130.7l-87.8,135.6l3.5-168.6L120,204.8H65.5V65.5h377
			V204.8z"/>
	</g>
</g>
<g>
	<g>
		<path d="M417.9,393.3c-22.6,0-41,18.4-41,41c0,22.6,18.4,41,41,41c22.6,0,41-18.4,41-41C458.8,411.7,440.5,393.3,417.9,393.3z
			 M417.9,458.8c-13.6,0-24.6-11-24.6-24.6c0-13.6,11-24.6,24.6-24.6c13.6,0,24.6,11,24.6,24.6C442.5,447.8,431.4,458.8,417.9,458.8
			z"/>
	</g>
</g>
<g>
	<g>
		<path d="M303.2,393.3c-22.6,0-41,18.4-41,41c0,22.6,18.4,41,41,41c22.6,0,41-18.4,41-41C344.1,411.7,325.7,393.3,303.2,393.3z
			 M303.2,458.8c-13.6,0-24.6-11-24.6-24.6c0-13.6,11-24.6,24.6-24.6c13.6,0,24.6,11,24.6,24.6C327.7,447.8,316.7,458.8,303.2,458.8
			z"/>
	</g>
</g>
<g>
	<g>
		<rect x="81.9" y="426.1" width="16.4" height="16.4"/>
	</g>
</g>
<g>
	<g>
		<rect x="114.7" y="426.1" width="16.4" height="16.4"/>
	</g>
</g>
<g>
	<g>
		<rect x="147.5" y="426.1" width="16.4" height="16.4"/>
	</g>
</g>
<g>
</g>
<g>
</g>
<g>
</g>
<g>
</g>
<g>
</g>
<g>
</g>
<g>
</g>
<g>
</g>
<g>
</g>
<g>
</g>
<g>
</g>
<g>
</g>
<g>
</g>
<g>
</g>
<g>
</g>
</svg>
